<?xml version="1.0" encoding="UTF-8" standalone="no"?>
<!-- Created with Inkscape (http://www.inkscape.org/) -->

<svg
   xmlns:dc="http://purl.org/dc/elements/1.1/"
   xmlns:cc="http://creativecommons.org/ns#"
   xmlns:rdf="http://www.w3.org/1999/02/22-rdf-syntax-ns#"
   xmlns:svg="http://www.w3.org/2000/svg"
   xmlns="http://www.w3.org/2000/svg"
   xmlns:sodipodi="http://sodipodi.sourceforge.net/DTD/sodipodi-0.dtd"
   xmlns:inkscape="http://www.inkscape.org/namespaces/inkscape"
   width="64px"
   height="64px"
   id="svg2985"
   version="1.1"
   inkscape:version="0.48.5 r10040"
   sodipodi:docname="IconRev1.svg">
  <sodipodi:namedview
     id="base"
     pagecolor="#ffffff"
     bordercolor="#666666"
     borderopacity="1.0"
     inkscape:pageopacity="0.0"
     inkscape:pageshadow="2"
     inkscape:zoom="7.7781746"
     inkscape:cx="25.151108"
     inkscape:cy="30.17629"
     inkscape:current-layer="layer3"
     showgrid="true"
     inkscape:document-units="px"
     inkscape:grid-bbox="true"
     inkscape:window-width="1920"
     inkscape:window-height="1016"
     inkscape:window-x="0"
     inkscape:window-y="20"
     inkscape:window-maximized="1" />
  <defs
     id="defs2987">
    <clipPath
       id="clipPath6042"
       clipPathUnits="userSpaceOnUse">
      <rect
         style="fill:#8e24aa;fill-opacity:1;stroke:#b0b0b0;stroke-linecap:round;stroke-linejoin:miter;stroke-opacity:0;display:inline"
         id="rect6044"
         width="62.611092"
         height="62.611092"
         x="0.69445419"
         y="0.69445419"
         ry="8.2558165" />
    </clipPath>
  </defs>
  <metadata
     id="metadata2990">
    <rdf:RDF>
      <cc:Work
         rdf:about="">
        <dc:format>image/svg+xml</dc:format>
        <dc:type
           rdf:resource="http://purl.org/dc/dcmitype/StillImage" />
        <dc:title />
      </cc:Work>
    </rdf:RDF>
  </metadata>
  <g
     id="layer1"
     inkscape:label="Layer 1"
     inkscape:groupmode="layer"
     style="display:inline">
    <rect
       style="fill:#8e24aa;fill-opacity:1;stroke:#b0b0b0;stroke-linecap:round;stroke-linejoin:miter;stroke-opacity:0"
       id="rect3763"
       width="62.611092"
       height="62.611092"
       x="0.69445419"
       y="0.69445419"
       ry="8.2558165" />
  </g>
  <g
     style="display:inline"
     inkscape:groupmode="layer"
     id="layer3"
     inkscape:label="shadow">
    <g
       clip-path="url(#clipPath6042)"
       style="opacity:0.15"
       id="g5577">
      <g
         id="g4210"
         transform="translate(2.1285649,-1.1000457)"
         style="fill:#00000e;fill-opacity:1">
        <g
           id="g4185"
           style="fill:#00000e;fill-opacity:1">
          <g
             id="g4219"
             style="fill:#00000e;fill-opacity:1">
            <g
               id="g5427"
               style="fill:#00000e;fill-opacity:1">
              <g
                 id="g5429"
                 style="font-size:medium;font-style:normal;font-variant:normal;font-weight:normal;font-stretch:normal;text-indent:0;text-align:start;text-decoration:none;line-height:normal;letter-spacing:normal;word-spacing:normal;text-transform:none;direction:ltr;block-progression:tb;writing-mode:lr-tb;text-anchor:start;baseline-shift:baseline;color:#000000;fill:#00000e;fill-opacity:1;fill-rule:nonzero;stroke:none;stroke-width:3.66483568999999987;marker:none;visibility:visible;display:inline;overflow:visible;enable-background:accumulate;font-family:Sans;-inkscape-font-specification:Sans">
                <path
                   id="path5431"
                   d="m 32.564911,23.081981 c 0,6.956439 -5.433325,12.649713 -12.381183,12.995126 l 70.710678,70.710683 c 6.947858,-0.34542 12.381184,-6.03869 12.381184,-12.995131 z"
                   inkscape:connector-curvature="0"
                   style="fill:#00000e;fill-opacity:1" />
                <path
                   id="path5433"
                   d="m 20.337214,39.070078 c 8.514524,-0.423299 14.70641,-8.588 14.70641,-17.11304 l 71.224936,71.835621 c 0,8.525041 -6.706144,15.564801 -15.220668,15.988101 z"
                   inkscape:connector-curvature="0"
                   sodipodi:nodetypes="ccccc"
                   style="fill:#00000e;fill-opacity:1" />
              </g>
              <path
                 inkscape:connector-curvature="0"
                 id="path3783-5-4"
                 d="m 34.048606,21.547124 a 1.50015,1.50015 0 0 0 -1.483695,1.534857 c 0,6.956439 -5.433325,12.649713 -12.381183,12.995126 a 1.50015,1.50015 0 1 0 0.153486,2.992971 c 8.514524,-0.423299 15.220669,-7.463057 15.220669,-15.988097 a 1.50015,1.50015 0 0 0 -1.509277,-1.534857 z"
                 style="font-size:medium;font-style:normal;font-variant:normal;font-weight:normal;font-stretch:normal;text-indent:0;text-align:start;text-decoration:none;line-height:normal;letter-spacing:normal;word-spacing:normal;text-transform:none;direction:ltr;block-progression:tb;writing-mode:lr-tb;text-anchor:start;baseline-shift:baseline;color:#000000;fill:#00000e;fill-opacity:1;fill-rule:nonzero;stroke:none;stroke-width:3.66483568999999987;marker:none;visibility:visible;display:inline;overflow:visible;enable-background:accumulate;font-family:Sans;-inkscape-font-specification:Sans" />
            </g>
            <g
               id="g5436"
               style="fill:#00000e;fill-opacity:1">
              <g
                 id="g5438"
                 style="fill:#00000e;fill-opacity:1;stroke:#000000;stroke-width:0.76300000999999995;stroke-miterlimit:4;stroke-opacity:0;display:inline">
                <path
                   id="path5440"
                   d="m 7.7154435,7.3612771 9.8243195,0 70.710678,70.7106779 -9.824319,0 z"
                   inkscape:connector-curvature="0"
                   style="fill:#00000e;fill-opacity:1" />
                <path
                   id="path5442"
                   d="m 17.539763,7.3612771 c 0.3301,0 0.628024,0.1328742 0.843423,0.3482733 L 89.093864,78.420229 c -0.215399,-0.2154 -0.513323,-0.348274 -0.843423,-0.348274 z"
                   inkscape:connector-curvature="0"
                   style="fill:#00000e;fill-opacity:1" />
                <path
                   id="path5444"
                   d="m 18.383186,7.7095504 c 0.215399,0.215399 0.348273,0.513323 0.348273,0.8434228 L 89.442137,79.263651 c 0,-0.330099 -0.132874,-0.628023 -0.348273,-0.843422 z"
                   inkscape:connector-curvature="0"
                   style="fill:#00000e;fill-opacity:1" />
                <path
                   id="path5446"
                   d="m 18.731459,8.5529732 0,17.1525158 70.710678,70.710678 0,-17.152516 z"
                   inkscape:connector-curvature="0"
                   style="fill:#00000e;fill-opacity:1" />
                <path
                   id="path5448"
                   d="m 18.731459,25.705489 c 0,0.660199 -0.531497,1.191696 -1.191696,1.191696 l 70.710678,70.710678 c 0.660199,0 1.191696,-0.531497 1.191696,-1.191696 z"
                   inkscape:connector-curvature="0"
                   style="fill:#00000e;fill-opacity:1" />
                <path
                   id="path5450"
                   d="m 17.539763,26.897185 -9.8243195,0 70.7106785,70.710678 9.824319,0 z"
                   inkscape:connector-curvature="0"
                   style="fill:#00000e;fill-opacity:1" />
                <path
                   id="path5452"
                   d="m 7.7154435,26.897185 c -0.3300997,0 -0.6280237,-0.132874 -0.8434228,-0.348273 L 77.582699,97.25959 c 0.215399,0.215399 0.513323,0.348273 0.843423,0.348273 z"
                   inkscape:connector-curvature="0"
                   style="fill:#00000e;fill-opacity:1" />
                <path
                   id="path5454"
                   d="M 6.8720207,26.548912 C 6.6566216,26.333513 6.5237474,26.035589 6.5237474,25.705489 L 77.234426,96.416167 c 0,0.3301 0.132874,0.628024 0.348273,0.843423 z"
                   inkscape:connector-curvature="0"
                   style="fill:#00000e;fill-opacity:1" />
                <path
                   id="path5456"
                   d="m 6.5237474,25.705489 0,-17.1525158 70.7106786,70.7106778 0,17.152516 z"
                   inkscape:connector-curvature="0"
                   style="fill:#00000e;fill-opacity:1" />
                <path
                   id="path5458"
                   d="m 6.5237474,8.5529732 c 0,-0.6601997 0.5314965,-1.1916961 1.1916961,-1.1916961 L 78.426122,78.071955 c -0.6602,0 -1.191696,0.531497 -1.191696,1.191696 z"
                   inkscape:connector-curvature="0"
                   style="fill:#00000e;fill-opacity:1" />
              </g>
              <path
                 id="rect3765-0-0"
                 d="m 7.7154435,7.3612771 9.8243195,0 c 0.660199,0 1.191696,0.5314964 1.191696,1.1916961 l 0,17.1525158 c 0,0.660199 -0.531497,1.191696 -1.191696,1.191696 l -9.8243195,0 c -0.6601996,0 -1.1916961,-0.531497 -1.1916961,-1.191696 l 0,-17.1525158 c 0,-0.6601997 0.5314965,-1.1916961 1.1916961,-1.1916961 z"
                 style="fill:#00000e;fill-opacity:1;stroke:#000000;stroke-width:0.76300000999999995;stroke-miterlimit:4;stroke-opacity:0;display:inline"
                 inkscape:connector-curvature="0" />
            </g>
            <g
               id="g5461"
               transform="matrix(0.78759398,0,0,0.29329278,14.375437,37.545252)"
               style="fill:#00000e;fill-opacity:1">
              <g
                 id="g5463"
                 style="fill:#00000e;fill-opacity:1;stroke:#000000;stroke-width:0.83435373999999995;stroke-linecap:butt;stroke-linejoin:round;stroke-miterlimit:4;stroke-opacity:1;display:inline">
                <path
                   id="path5465"
                   d="m 54.954473,40.071374 -13.556585,0 70.710682,70.710676 13.55658,0 z"
                   inkscape:connector-curvature="0"
                   style="fill:#00000e;fill-opacity:1" />
                <path
                   id="path5467"
                   d="m 41.397888,40.071374 -13.556585,0 70.710678,70.710676 13.556589,0 z"
                   inkscape:connector-curvature="0"
                   style="fill:#00000e;fill-opacity:1" />
                <path
                   id="path5469"
                   d="M 27.841303,40.071374 34.619595,28.331027 105.33027,99.041705 98.551981,110.78205 z"
                   inkscape:connector-curvature="0"
                   style="fill:#00000e;fill-opacity:1" />
                <path
                   id="path5471"
                   d="m 34.619595,28.331027 6.778293,-11.740347 70.710682,70.710678 -6.7783,11.740347 z"
                   inkscape:connector-curvature="0"
                   style="fill:#00000e;fill-opacity:1" />
                <path
                   id="path5473"
                   d="m 41.397888,16.59068 6.778293,11.740347 70.710679,70.710678 -6.77829,-11.740347 z"
                   inkscape:connector-curvature="0"
                   style="fill:#00000e;fill-opacity:1" />
              </g>
              <path
                 id="path3794-6-5"
                 d="m 54.954473,40.071374 -13.556585,0 -13.556585,0 6.778292,-11.740347 6.778293,-11.740347 6.778293,11.740347 z"
                 inkscape:transform-center-y="-1.1477866"
                 style="fill:#00000e;fill-opacity:1;stroke:#000000;stroke-width:0.83435373999999995;stroke-linecap:butt;stroke-linejoin:round;stroke-miterlimit:4;stroke-opacity:1;display:inline"
                 inkscape:connector-curvature="0" />
            </g>
            <g
               id="g5476"
               style="fill:#00000e;fill-opacity:1">
              <g
                 id="g5478"
                 style="font-size:medium;font-style:normal;font-variant:normal;font-weight:normal;font-stretch:normal;text-indent:0;text-align:start;text-decoration:none;line-height:normal;letter-spacing:normal;word-spacing:normal;text-transform:none;direction:ltr;block-progression:tb;writing-mode:lr-tb;text-anchor:start;baseline-shift:baseline;color:#000000;fill:#00000e;fill-opacity:1;fill-rule:nonzero;stroke:none;stroke-width:4.03116417000000027;marker:none;visibility:visible;display:inline;overflow:visible;enable-background:accumulate;font-family:Sans;-inkscape-font-specification:Sans">
                <path
                   id="path5480"
                   d="m 27.056941,22.630722 c 0,4.16867 -3.247481,7.576122 -7.41101,7.783111 l 70.710678,70.710677 c 4.163529,-0.20699 7.41101,-3.61444 7.41101,-7.78311 z"
                   inkscape:connector-curvature="0"
                   style="fill:#00000e;fill-opacity:1" />
                <path
                   id="path5482"
                   d="m 19.738961,32.413876 c 5.207972,-0.258914 9.318028,-4.568749 9.318028,-9.783154 L 99.767667,93.3414 c 0,5.214405 -4.110056,9.52424 -9.318028,9.78315 z"
                   inkscape:connector-curvature="0"
                   style="fill:#00000e;fill-opacity:1" />
              </g>
              <path
                 inkscape:connector-curvature="0"
                 id="path3781-7-1"
                 d="m 28.04921,21.607444 a 1.0000999,1.0000999 0 0 0 -0.992269,1.023278 c 0,4.16867 -3.247481,7.576122 -7.41101,7.783111 a 1.0011027,1.0011027 0 0 0 0.09303,2.000043 c 5.207972,-0.258914 9.318028,-4.568749 9.318028,-9.783154 A 1.0000999,1.0000999 0 0 0 28.04921,21.607444 z"
                 style="font-size:medium;font-style:normal;font-variant:normal;font-weight:normal;font-stretch:normal;text-indent:0;text-align:start;text-decoration:none;line-height:normal;letter-spacing:normal;word-spacing:normal;text-transform:none;direction:ltr;block-progression:tb;writing-mode:lr-tb;text-anchor:start;baseline-shift:baseline;color:#000000;fill:#00000e;fill-opacity:1;fill-rule:nonzero;stroke:none;stroke-width:4.03116417000000027;marker:none;visibility:visible;display:inline;overflow:visible;enable-background:accumulate;font-family:Sans;-inkscape-font-specification:Sans" />
            </g>
            <g
               id="g5485"
               style="fill:#00000e;fill-opacity:1">
              <g
                 id="g5487"
                 style="font-size:medium;font-style:normal;font-variant:normal;font-weight:normal;font-stretch:normal;text-indent:0;text-align:start;text-decoration:none;line-height:normal;letter-spacing:normal;word-spacing:normal;text-transform:none;direction:ltr;block-progression:tb;writing-mode:lr-tb;text-anchor:start;baseline-shift:baseline;color:#000000;fill:#00000e;fill-opacity:1;fill-rule:nonzero;stroke:none;stroke-width:2.95932889000000010;marker:none;visibility:visible;display:inline;overflow:visible;enable-background:accumulate;font-family:Sans;-inkscape-font-specification:Sans">
                <path
                   id="path5489"
                   d="m 39.720439,23.391304 c 0,10.803183 -8.418195,19.643702 -19.208052,20.180119 L 91.223065,114.2821 c 10.789855,-0.53642 19.208055,-9.37693 19.208055,-20.180118 z"
                   inkscape:connector-curvature="0"
                   style="fill:#00000e;fill-opacity:1" />
                <path
                   id="path5491"
                   d="M 19.209084,46.543047 C 31.921832,45.911034 42.804558,34.804329 42.804558,22.07588 l 71.320412,72.026102 c 0,12.728448 -9.99474,23.241958 -22.707492,23.873978 z"
                   inkscape:connector-curvature="0"
                   sodipodi:nodetypes="ccccc"
                   style="fill:#00000e;fill-opacity:1" />
              </g>
              <path
                 inkscape:connector-curvature="0"
                 id="path3785-3-8"
                 d="m 41.353512,21.524934 a 1.8412511,1.8412511 0 0 0 -1.633073,1.86637 c 0,10.803183 -8.418195,19.643702 -19.208052,20.180119 A 1.8494844,1.8494844 0 1 0 20.7068,47.265279 C 33.419548,46.633266 43.414295,36.119753 43.414295,23.391304 a 1.8412511,1.8412511 0 0 0 -2.060783,-1.86637 z"
                 style="font-size:medium;font-style:normal;font-variant:normal;font-weight:normal;font-stretch:normal;text-indent:0;text-align:start;text-decoration:none;line-height:normal;letter-spacing:normal;word-spacing:normal;text-transform:none;direction:ltr;block-progression:tb;writing-mode:lr-tb;text-anchor:start;baseline-shift:baseline;color:#000000;fill:#00000e;fill-opacity:1;fill-rule:nonzero;stroke:none;stroke-width:2.95932889000000010;marker:none;visibility:visible;display:inline;overflow:visible;enable-background:accumulate;font-family:Sans;-inkscape-font-specification:Sans" />
            </g>
            <g
               id="g5494"
               style="fill:#00000e;fill-opacity:1">
              <g
                 id="g5496"
                 style="fill:#00000e;fill-opacity:1;stroke:#000000;stroke-width:0.44591852999999998;stroke-linecap:butt;stroke-linejoin:round;stroke-miterlimit:4;stroke-opacity:1;display:inline">
                <path
                   id="path5498"
                   d="m 39.305622,48.935024 15.284689,0 70.710679,70.710676 -15.28469,0 z"
                   inkscape:connector-curvature="0"
                   style="fill:#00000e;fill-opacity:1" />
                <path
                   id="path5500"
                   d="m 54.590311,48.935024 0,7.862239 70.710679,70.710677 0,-7.86224 z"
                   inkscape:connector-curvature="0"
                   style="fill:#00000e;fill-opacity:1" />
                <path
                   id="path5502"
                   d="m 54.590311,56.797263 -15.284689,0 70.710678,70.710677 15.28469,0 z"
                   inkscape:connector-curvature="0"
                   style="fill:#00000e;fill-opacity:1" />
              </g>
              <path
                 id="rect3787-3-1"
                 d="m 39.305622,48.935024 15.284689,0 0,7.862239 -15.284689,0 z"
                 style="fill:#00000e;fill-opacity:1;stroke:#000000;stroke-width:0.44591852999999998;stroke-linecap:butt;stroke-linejoin:round;stroke-miterlimit:4;stroke-opacity:1;display:inline"
                 inkscape:connector-curvature="0" />
            </g>
          </g>
        </g>
      </g>
    </g>
  </g>
  <g
     style="display:none"
     inkscape:label="objs copy"
     id="g6065"
     inkscape:groupmode="layer">
    <g
       id="g6149">
      <g
         id="g6151"
         style="fill:#000000;fill-opacity:1;stroke:#000000;stroke-width:0.44591853;stroke-linecap:butt;stroke-linejoin:round;stroke-miterlimit:4;stroke-opacity:1">
        <path
           id="path6153"
           d="m 41.163628,47.606892 15.284689,0 70.710683,70.710678 -15.28469,0 z"
           inkscape:connector-curvature="0" />
        <path
           id="path6155"
           d="m 56.448317,47.606892 0,7.862238 70.710683,70.71068 0,-7.86224 z"
           inkscape:connector-curvature="0" />
        <path
           id="path6157"
           d="m 56.448317,55.46913 -15.284689,0 70.710682,70.71068 15.28469,0 z"
           inkscape:connector-curvature="0" />
      </g>
      <path
         id="rect6075"
         d="m 41.163628,47.606892 15.284689,0 0,7.862238 -15.284689,0 z"
         style="fill:#000000;fill-opacity:1;stroke:#000000;stroke-width:0.44591853;stroke-linecap:butt;stroke-linejoin:round;stroke-miterlimit:4;stroke-opacity:1"
         inkscape:connector-curvature="0" />
    </g>
    <g
       id="g6160"
       transform="matrix(0.78759398,0,0,0.29329278,16.23344,36.217117)">
      <g
         id="g6162"
         style="fill:#000000;fill-opacity:1;stroke:#000000;stroke-width:0.83435374;stroke-linecap:butt;stroke-linejoin:round;stroke-miterlimit:4;stroke-opacity:1">
        <path
           id="path6164"
           d="m 54.954473,40.071374 -13.556585,0 70.710682,70.710676 13.55658,0 z"
           inkscape:connector-curvature="0" />
        <path
           id="path6166"
           d="m 41.397888,40.071374 -13.556585,0 70.710678,70.710676 13.556589,0 z"
           inkscape:connector-curvature="0" />
        <path
           id="path6168"
           d="M 27.841303,40.071374 34.619595,28.331027 105.33027,99.041705 98.551981,110.78205 z"
           inkscape:connector-curvature="0" />
        <path
           id="path6170"
           d="m 34.619595,28.331027 6.778293,-11.740347 70.710682,70.710678 -6.7783,11.740347 z"
           inkscape:connector-curvature="0" />
        <path
           id="path6172"
           d="m 41.397888,16.59068 6.778293,11.740347 70.710679,70.710678 -6.77829,-11.740347 z"
           inkscape:connector-curvature="0" />
      </g>
      <path
         id="path6077"
         d="m 54.954473,40.071374 -13.556585,0 -13.556585,0 6.778292,-11.740347 6.778293,-11.740347 6.778293,11.740347 z"
         inkscape:transform-center-y="-1.1477866"
         style="fill:#000000;fill-opacity:1;stroke:#000000;stroke-width:0.83435374;stroke-linecap:butt;stroke-linejoin:round;stroke-miterlimit:4;stroke-opacity:1"
         inkscape:connector-curvature="0" />
    </g>
    <g
       id="g6175">
      <g
         id="g6177"
         style="fill:#000000;fill-opacity:1;stroke:#b0b0b0;stroke-width:0.76300001;stroke-miterlimit:4;stroke-opacity:0">
        <path
           id="path6179"
           d="m 9.5734462,6.0331416 9.8243188,0 70.710678,70.7106784 -9.824319,0 z"
           inkscape:connector-curvature="0" />
        <path
           id="path6181"
           d="m 19.397765,6.0331416 c 0.3301,0 0.628024,0.1328741 0.843423,0.3482731 L 90.951866,77.092093 C 90.736467,76.876694 90.438543,76.74382 90.108443,76.74382 z"
           inkscape:connector-curvature="0" />
        <path
           id="path6183"
           d="m 20.241188,6.3814147 c 0.215399,0.215399 0.348273,0.5133231 0.348273,0.843423 L 91.300139,77.935516 c 0,-0.3301 -0.132874,-0.628024 -0.348273,-0.843423 z"
           inkscape:connector-curvature="0" />
        <path
           id="path6185"
           d="m 20.589461,7.2248377 0,17.1525153 70.710678,70.710678 0,-17.152515 z"
           inkscape:connector-curvature="0" />
        <path
           id="path6187"
           d="m 20.589461,24.377353 c 0,0.6602 -0.531496,1.191696 -1.191696,1.191696 l 70.710678,70.710678 c 0.6602,0 1.191696,-0.531496 1.191696,-1.191696 z"
           inkscape:connector-curvature="0" />
        <path
           id="path6189"
           d="m 19.397765,25.569049 -9.8243188,0 70.7106778,70.710678 9.824319,0 z"
           inkscape:connector-curvature="0" />
        <path
           id="path6191"
           d="m 9.5734462,25.569049 c -0.3300999,0 -0.628024,-0.132874 -0.8434231,-0.348273 L 79.440701,95.931454 c 0.215399,0.215399 0.513323,0.348273 0.843423,0.348273 z"
           inkscape:connector-curvature="0" />
        <path
           id="path6193"
           d="M 8.7300231,25.220776 C 8.5146241,25.005377 8.3817501,24.707453 8.3817501,24.377353 L 79.092428,95.088031 c 0,0.3301 0.132874,0.628024 0.348273,0.843423 z"
           inkscape:connector-curvature="0" />
        <path
           id="path6195"
           d="m 8.3817501,24.377353 0,-17.1525153 70.7106779,70.7106783 0,17.152515 z"
           inkscape:connector-curvature="0" />
        <path
           id="path6197"
           d="m 8.3817501,7.2248377 c 0,-0.6601996 0.5314964,-1.1916961 1.1916961,-1.1916961 L 80.284124,76.74382 c -0.660199,0 -1.191696,0.531496 -1.191696,1.191696 z"
           inkscape:connector-curvature="0" />
      </g>
      <path
         id="rect6067"
         d="m 9.5734462,6.0331416 9.8243188,0 c 0.6602,0 1.191696,0.5314965 1.191696,1.1916961 l 0,17.1525153 c 0,0.6602 -0.531496,1.191696 -1.191696,1.191696 l -9.8243188,0 c -0.6601997,0 -1.1916961,-0.531496 -1.1916961,-1.191696 l 0,-17.1525153 c 0,-0.6601996 0.5314964,-1.1916961 1.1916961,-1.1916961 z"
         style="fill:#000000;fill-opacity:1;stroke:#b0b0b0;stroke-width:0.76300001;stroke-miterlimit:4;stroke-opacity:0"
         inkscape:connector-curvature="0" />
    </g>
  </g>
  <g
     inkscape:groupmode="layer"
     id="layer2"
     inkscape:label="objs"
     style="display:inline">
    <rect
       style="fill:#ffffff;fill-opacity:1;stroke:#b0b0b0;stroke-width:0.76300001;stroke-miterlimit:4;stroke-opacity:0;stroke-dasharray:none"
       id="rect3765-0"
       width="12.207711"
       height="19.535908"
       x="8.3817501"
       y="6.0331416"
       ry="1.191696" />
    <path
       sodipodi:type="arc"
       style="fill:#ffffff;fill-opacity:0;stroke:#fbffff;stroke-width:4.03116417;stroke-linecap:round;stroke-linejoin:miter;stroke-miterlimit:4;stroke-opacity:1;stroke-dasharray:none"
       id="path3781-7"
       sodipodi:cx="42.940666"
       sodipodi:cy="30.958828"
       sodipodi:rx="17.741953"
       sodipodi:ry="17.741953"
       d="M 60.682619,30.958828 A 17.741953,17.741953 0 0 1 43.821618,48.678896"
       sodipodi:start="0"
       sodipodi:end="1.5211223"
       sodipodi:open="true"
       transform="matrix(0.49613458,0,0,0.49613458,-0.18644999,5.9379186)" />
    <path
       transform="matrix(0.81859057,0,0,0.81859057,-13.746025,-3.596881)"
       sodipodi:open="true"
       sodipodi:end="1.5211223"
       sodipodi:start="0"
       d="M 60.682619,30.958828 A 17.741953,17.741953 0 0 1 43.821618,48.678896"
       sodipodi:ry="17.741953"
       sodipodi:rx="17.741953"
       sodipodi:cy="30.958828"
       sodipodi:cx="42.940666"
       id="path3783-5"
       style="fill:#ffffff;fill-opacity:0;stroke:#fbffff;stroke-width:3.66483569;stroke-linecap:round;stroke-linejoin:miter;stroke-miterlimit:4;stroke-opacity:1;stroke-dasharray:none"
       sodipodi:type="arc" />
    <path
       sodipodi:type="arc"
       style="fill:#ffffff;fill-opacity:0;stroke:#fbffff;stroke-width:2.95932889;stroke-linecap:round;stroke-linejoin:miter;stroke-miterlimit:4;stroke-opacity:1;stroke-dasharray:none"
       id="path3785-3"
       sodipodi:cx="42.940666"
       sodipodi:cy="30.958828"
       sodipodi:rx="17.741953"
       sodipodi:ry="17.741953"
       d="M 60.682619,30.958828 A 17.741953,17.741953 0 0 1 43.821618,48.678896"
       sodipodi:start="0"
       sodipodi:end="1.5211223"
       sodipodi:open="true"
       transform="matrix(1.2442463,0,0,1.2442463,-32.065386,-16.469584)" />
    <rect
       style="fill:#ffffff;fill-opacity:1;stroke:#fbffff;stroke-width:0.44591853;stroke-linecap:butt;stroke-linejoin:round;stroke-miterlimit:4;stroke-opacity:1;stroke-dasharray:none"
       id="rect3787-3"
       width="15.284689"
       height="7.8622384"
       x="41.163628"
       y="47.606892"
       ry="0" />
    <path
       sodipodi:type="star"
       style="fill:#ffffff;fill-opacity:1;stroke:#fbffff;stroke-width:0.83435374;stroke-linecap:butt;stroke-linejoin:round;stroke-miterlimit:4;stroke-opacity:1;stroke-dasharray:none"
       id="path3794-6"
       sodipodi:sides="3"
       sodipodi:cx="41.397888"
       sodipodi:cy="32.244476"
       sodipodi:r1="15.653796"
       sodipodi:r2="7.8268981"
       sodipodi:arg1="0.52359878"
       sodipodi:arg2="1.5707963"
       inkscape:flatsided="false"
       inkscape:rounded="0"
       inkscape:randomized="0"
       d="m 54.954473,40.071374 -13.556585,0 -13.556585,0 6.778292,-11.740347 6.778293,-11.740347 6.778293,11.740347 z"
       inkscape:transform-center-y="-1.1477866"
       transform="matrix(0.78759398,0,0,0.29329278,16.23344,36.217117)" />
  </g>
</svg>
